<svg width="100.00000000000001" height="64" xmlns="http://www.w3.org/2000/svg">
 <style type="text/css">.st0{fill:#000000;}</style>

 <g>
  <title>background</title>
  <rect fill="none" id="canvas_background" height="66" width="102" y="-1" x="-1"/>
 </g>
 <g>
  <title>Layer 1</title>
  <g id="xKWJTo_1_">
   <g id="svg_1">
    <path stroke="#000000" stroke-width="0" fill="#000" id="svg_2" d="m23.318184,31.479893c0,-16.399985 13.290149,-29.602119 29.866162,-29.514105c16.106604,0.088014 29.308739,13.260811 29.2794,29.807486c-0.058676,16.16528 -13.407501,29.308739 -29.778148,29.308739c-16.106604,-0.029338 -29.367415,-13.378163 -29.367415,-29.602119zm43.156311,-12.410006c-4.136669,0 -8.244,0 -12.35133,0c0,3.491231 0.029338,6.894448 -0.029338,10.327003c0,0.674776 0.205367,0.880142 0.880142,0.880142c4.136669,-0.029338 8.273338,0 12.410006,-0.029338c0.234705,0 0.469409,-0.029338 0.792128,-0.058676c-0.088014,-3.81395 -0.645438,-7.510548 -1.701608,-11.119131zm-14.874405,0c-4.077993,0 -8.185323,0 -12.263316,0c-0.938818,2.552413 -1.936313,9.329508 -1.613594,11.148469c4.606078,0 9.212156,0 13.906248,0c-0.029338,-3.696598 -0.029338,-7.363857 -0.029338,-11.148469zm-12.292654,24.849351c4.136669,0 8.214661,0 12.292654,0c0,-3.725936 0,-7.422533 0,-11.119131c-4.694092,0 -9.30017,0 -13.935586,0c-0.205367,2.229694 0.704114,8.361352 1.642932,11.119131zm14.874405,-11.177807c0,3.784612 0,7.48121 0,11.177807c4.136669,0 8.214661,0 12.263316,0c1.026833,-3.021822 1.936313,-9.534875 1.584256,-11.177807c-4.57674,0 -9.15348,0 -13.847572,0zm15.050433,-13.73022c0.528085,3.725936 1.085509,7.451871 1.613594,11.177807c2.90447,0 5.984968,0 9.065466,0c-0.205367,-3.843288 -1.114847,-7.393195 -2.816455,-10.737736c-0.088014,-0.205367 -0.381395,-0.410733 -0.586762,-0.410733c-2.464398,-0.029338 -4.958135,-0.029338 -7.275843,-0.029338zm-32.565265,0c-2.493737,0 -4.928797,0 -7.393195,0.029338c-0.234705,0 -0.557423,0.293381 -0.674776,0.528085c-0.6161,1.466904 -1.320213,2.90447 -1.701608,4.400711c-0.528085,2.024327 -0.821466,4.077993 -1.232199,6.219672c3.315203,0 6.366363,0 9.388185,0c0.205367,-1.906975 0.322719,-3.755274 0.586762,-5.574235c0.264043,-1.848299 0.645438,-3.696598 1.026833,-5.603573zm-10.82575,13.759558c0.058676,3.344541 1.261537,7.921281 2.757779,10.708398c0.117352,0.205367 0.381395,0.440071 0.557423,0.440071c2.523075,0.029338 5.016811,0.029338 7.363857,0.029338c-0.557423,-3.725936 -1.085509,-7.451871 -1.642932,-11.177807c-2.90447,0 -5.926291,0 -9.036128,0zm54.099413,0.029338c-3.139174,0 -6.219672,0 -9.065466,0c-0.557423,3.784612 -1.085509,7.451871 -1.642932,11.177807c2.317708,0 4.811445,0 7.275843,-0.029338c0.205367,0 0.498747,-0.205367 0.586762,-0.410733c1.701608,-3.344541 2.640427,-6.894448 2.845793,-10.737736zm-39.723756,13.671544c0.029338,0.176028 0.058676,0.352057 0.088014,0.469409c0.90948,2.28837 2.024327,4.488726 3.549907,6.425039c1.789623,2.317708 3.931302,4.166007 6.86511,4.899459c0.264043,0.058676 0.557423,0.088014 0.850804,0.117352c0,-4.048655 0,-7.979957 0,-11.940597c-3.784612,0.029338 -7.539886,0.029338 -11.353836,0.029338zm13.935586,11.940597c4.195345,-0.117352 10.708398,-7.0118 11.353836,-11.911259c-3.784612,0 -7.569224,0 -11.353836,0c0,3.989978 0,7.921281 0,11.911259zm11.412512,-41.894773c-0.029338,-0.176028 -0.029338,-0.293381 -0.088014,-0.410733c-0.90948,-2.317708 -2.053665,-4.518064 -3.579245,-6.483715c-1.701608,-2.171018 -3.696598,-3.931302 -6.366363,-4.782106c-0.410733,-0.14669 -0.880142,-0.205367 -1.349552,-0.293381c0,4.107331 0,8.038633 0,11.999273c3.81395,-0.029338 7.569224,-0.029338 11.383174,-0.029338zm-25.289422,-0.029338c3.784612,0 7.569224,0 11.324498,0c0,-3.989978 0,-7.921281 0,-11.852583c-3.81395,-0.264043 -10.591046,6.835772 -11.324498,11.852583zm3.403217,40.398532c-2.728441,-2.875132 -4.547402,-6.278348 -5.926291,-9.91627c-0.176028,-0.440071 -0.410733,-0.528085 -0.850804,-0.528085c-1.994989,0.029338 -3.989978,0 -5.984968,0c-0.176028,0 -0.352057,0.058676 -0.586762,0.088014c3.403217,4.928797 7.803928,8.361352 13.348825,10.356341zm18.512326,0.058676c5.456882,-2.053665 9.857594,-5.48622 13.260811,-10.473693c-2.493737,0 -4.840783,0 -7.099815,0c-0.90948,1.848299 -1.67227,3.725936 -2.669765,5.456882c-1.056171,1.760285 -2.317708,3.344541 -3.491231,5.016811zm13.290149,-40.398532c-3.461893,-5.016811 -7.862605,-8.478704 -13.407501,-10.473693c0.410733,0.557423 0.880142,1.056171 1.320213,1.584256c2.024327,2.493737 3.461893,5.280854 4.606078,8.273338c0.088014,0.234705 0.381395,0.586762 0.586762,0.586762c2.229694,0.029338 4.488726,0.029338 6.894448,0.029338zm-37.934133,-0.029338c1.408228,-3.843288 3.285865,-7.422533 6.131658,-10.444355c-5.574235,2.024327 -10.004284,5.456882 -13.378163,10.444355c2.523075,0 4.840783,0 7.246505,0z" class="st0"/>
   </g>
  </g>
 </g>
</svg>